<?xml version="1.0" encoding="UTF-8"?>
<svg version="1.1" xmlns="http://www.w3.org/2000/svg" width="306" height="303">
<path d="M0 0 C4.19077917 2.40166038 7.71084112 2.39316216 12.44506836 2.18652344 C13.66464485 2.16380371 13.66464485 2.16380371 14.90885925 2.140625 C18.34932706 2.07615927 21.78780056 1.9650642 25.22705078 1.85449219 C39.7195571 1.42976242 57.98516572 1.24145896 69.86303711 10.93652344 C72.96000954 14.2601036 74.11936623 16.8567372 74.42553711 21.31152344 C73.90522397 30.50882326 66.64017941 36.52469073 60.68334961 42.87011719 C58.15297135 45.58512628 55.80409792 48.41003766 53.48803711 51.31152344 C48.87732072 57.0417483 43.88547073 62.36737422 38.85913086 67.72949219 C34.49313418 72.38843663 30.33127878 77.20723147 26.19897461 82.07324219 C20.59727907 88.65772368 14.91067581 95.12882346 9.01928711 101.45605469 C5.80334272 104.91021718 2.65785756 108.41087936 -0.42993164 111.97949219 C-2.4732972 114.32211494 -4.55377148 116.62925766 -6.63696289 118.93652344 C-9.93653919 122.59401988 -13.21198629 126.26891032 -16.43383789 129.99511719 C-17.63146141 131.36029813 -18.85255515 132.70506953 -20.09008789 134.03417969 C-20.72430664 134.72382813 -21.35852539 135.41347656 -22.01196289 136.12402344 C-22.8743457 137.04248047 -22.8743457 137.04248047 -23.75415039 137.97949219 C-25.44172711 140.36784229 -25.78369349 142.03870955 -26.13696289 144.93652344 C-25.67069281 147.33085253 -25.67069281 147.33085253 -24.73852539 149.70214844 C-24.42399414 150.59289062 -24.10946289 151.48363281 -23.78540039 152.40136719 C-23.27879883 153.78001953 -23.27879883 153.78001953 -22.76196289 155.18652344 C-16.86725707 171.32788585 -16.86725707 171.32788585 -19.32446289 178.31152344 C-22.05974022 182.27295957 -24.45591745 184.01563198 -29.13696289 184.93652344 C-30.99869639 185.04171999 -32.86366131 185.09490196 -34.72827148 185.11352539 C-35.84978607 185.12636063 -36.97130066 185.13919586 -38.12680054 185.15242004 C-39.33413849 185.15980698 -40.54147644 185.16719391 -41.78540039 185.17480469 C-43.03068512 185.18287643 -44.27596985 185.19094818 -45.55899048 185.19926453 C-48.19341746 185.21309259 -50.82771985 185.22411322 -53.4621582 185.23168945 C-56.15867649 185.24055824 -58.85468092 185.26145662 -61.55102539 185.29321289 C-65.44180879 185.33580402 -69.33191307 185.35204648 -73.22290039 185.36230469 C-75.02783463 185.38856682 -75.02783463 185.38856682 -76.86923218 185.4153595 C-84.79915087 185.39478925 -88.26202587 184.50616239 -94.07055664 179.15527344 C-94.5668457 178.58808594 -95.06313477 178.02089844 -95.57446289 177.43652344 C-96.08879883 176.86933594 -96.60313477 176.30214844 -97.13305664 175.71777344 C-98.13696289 173.93652344 -98.13696289 173.93652344 -98.17993164 172.03417969 C-96.577676 168.81166553 -93.80640714 167.02027384 -91.01196289 164.87402344 C-84.92300111 159.9613478 -80.76741354 154.93661649 -77.13696289 147.93652344 C-76.72961914 147.164375 -76.32227539 146.39222656 -75.90258789 145.59667969 C-69.59855244 132.60031675 -69.74687292 118.51939579 -74.13696289 104.93652344 C-77.21149161 97.64150529 -80.77758072 92.64246625 -87.13696289 87.93652344 C-89.61196289 90.90652344 -89.61196289 90.90652344 -92.13696289 93.93652344 C-90.83483598 96.65478837 -89.38072518 99.1256991 -87.69946289 101.62402344 C-81.61584172 111.35063899 -80.14196677 121.77410378 -82.19946289 132.99902344 C-84.81627608 143.73617171 -90.0760846 151.55562323 -99.13696289 157.93652344 C-105.07233165 161.29238594 -110.34697819 163.14016721 -117.13696289 163.93652344 C-116.77344727 164.47132324 -116.40993164 165.00612305 -116.03540039 165.55712891 C-114.39780496 167.97205729 -112.76731465 170.39169954 -111.13696289 172.81152344 C-110.56461914 173.65328125 -109.99227539 174.49503906 -109.40258789 175.36230469 C-108.86118164 176.16796875 -108.31977539 176.97363281 -107.76196289 177.80371094 C-107.00786133 178.91915283 -107.00786133 178.91915283 -106.23852539 180.05712891 C-105.13696289 181.93652344 -105.13696289 181.93652344 -105.13696289 183.93652344 C-108.83742462 185.10035524 -112.35101837 185.07694023 -116.21289062 185.09765625 C-116.91745392 185.10262115 -117.62201721 185.10758606 -118.34793091 185.11270142 C-120.67214951 185.12727312 -122.99629992 185.13411577 -125.32055664 185.13964844 C-126.9395396 185.14540288 -128.55852255 185.15116058 -130.17750549 185.15692139 C-133.56934933 185.16741638 -136.96116956 185.17326923 -140.35302734 185.17675781 C-144.69532203 185.18224718 -149.03730389 185.2062908 -153.37950039 185.23472977 C-156.72269094 185.25336648 -160.06580616 185.25856224 -163.40904427 185.26009369 C-165.00980405 185.26311713 -166.61056261 185.27113527 -168.21127129 185.28427887 C-170.45163614 185.3013656 -172.69123676 185.29945342 -174.93164062 185.29296875 C-176.84214455 185.29843719 -176.84214455 185.29843719 -178.79124451 185.30401611 C-182.40918494 184.90662265 -184.27082619 184.14160447 -187.13696289 181.93652344 C-188.68383789 179.15917969 -188.68383789 179.15917969 -189.88696289 175.99902344 C-190.29430664 174.95875 -190.70165039 173.91847656 -191.12133789 172.84667969 C-194.8354732 162.20425351 -194.58853449 149.09332286 -190.46118164 138.60839844 C-184.78225746 127.15003815 -175.87845908 119.23460256 -166.05883789 111.35449219 C-162.9847263 108.81054155 -160.05526624 106.15530483 -157.13696289 103.43652344 C-152.52722095 99.14666538 -147.75910521 95.13239408 -142.85180664 91.18261719 C-140.03022794 88.84821754 -137.33105577 86.41661745 -134.63696289 83.93652344 C-131.08026045 80.6623392 -127.46534478 77.53009911 -123.69946289 74.49902344 C-119.16379846 70.84081329 -114.87995119 66.98909378 -110.61767578 63.02270508 C-106.53035283 59.24161785 -102.25653046 55.73962378 -97.91821289 52.24902344 C-94.89677101 49.73681333 -92.01254517 47.11251517 -89.13696289 44.43652344 C-84.54936176 40.16734192 -79.80253561 36.17893827 -74.91821289 32.24902344 C-71.89676805 29.73681087 -69.01257906 27.11248256 -66.13696289 24.43652344 C-61.50536031 20.12732697 -56.72444677 16.0808775 -51.78149414 12.12792969 C-49.13813509 9.93749479 -46.68103319 7.61977401 -44.19946289 5.24902344 C-31.05141829 -6.76303011 -15.26520753 -10.04136774 0 0 Z M-28.13696289 19.93652344 C-30.91855748 24.10891532 -31.33300571 27.96005196 -31.13696289 32.93652344 C-29.75187488 37.01732039 -27.75419746 39.52503373 -24.13696289 41.93652344 C-17.68555954 42.82637218 -14.35728824 41.3359414 -9.01977539 37.73730469 C-6.76311544 35.57896394 -5.97097787 33.9353314 -5.13696289 30.93652344 C-5.12987148 26.85896342 -6.11875463 23.31096435 -8.55493164 20.02246094 C-11.5136785 17.16527289 -14.04295261 15.55883979 -18.19946289 15.31152344 C-22.56271339 16.00410288 -24.76449929 17.1261371 -28.13696289 19.93652344 Z " fill="#40D65E" transform="translate(217.136962890625,65.0634765625)"/>
<path d="M0 0 C4.14631075 1.38210358 5.24889577 4.22605858 7.375 7.8125 C8.26771192 9.2797543 9.1623349 10.74584711 10.05859375 12.2109375 C10.53409668 12.99049805 11.00959961 13.77005859 11.49951172 14.57324219 C14.07579015 18.7398884 16.75806007 22.83672977 19.4375 26.9375 C20.25383911 28.19119385 20.25383911 28.19119385 21.08666992 29.47021484 C23.78354861 33.61083671 26.48919213 37.74553864 29.203125 41.875 C30.19794912 43.3958121 31.19274228 44.91664447 32.1875 46.4375 C32.64503662 47.12900146 33.10257324 47.82050293 33.57397461 48.53295898 C37.43728429 54.45120496 39.57233683 58.68276513 38.53515625 65.84765625 C37.73291579 69.07418539 36.46863333 70.79824595 34 73 C29.54864334 74.83085501 25.74900157 75.25666386 20.95703125 75.265625 C20.30675461 75.26753845 19.65647797 75.2694519 18.98649597 75.27142334 C17.62258513 75.27277566 16.25866101 75.26914627 14.89477539 75.26074219 C12.80781349 75.24997582 10.72170203 75.26069584 8.63476562 75.2734375 C7.31798828 75.27085937 6.00121094 75.26828125 4.64453125 75.265625 C3.44159424 75.26336914 2.23865723 75.26111328 0.99926758 75.25878906 C-2 75 -2 75 -5 73 C-5.7734375 70.2109375 -5.7734375 70.2109375 -6.375 66.375 C-6.48948486 65.6629541 -6.60396973 64.9509082 -6.72192383 64.21728516 C-6.9927141 62.51945944 -7.25716638 60.82061702 -7.51708984 59.12109375 C-7.98184778 56.11731952 -8.465959 53.11707222 -8.95568848 50.11727905 C-9.42173891 47.25787747 -9.88172858 44.39752097 -10.34039307 41.53692627 C-10.57054949 40.10341639 -10.80194068 38.67010417 -11.03460693 37.23699951 C-11.3659097 35.18749122 -11.68973062 33.13692733 -12.01171875 31.0859375 C-12.20209717 29.8901709 -12.39247559 28.6944043 -12.58862305 27.46240234 C-13.69698492 18.13374471 -13.69698492 18.13374471 -10.91796875 13.61328125 C-10.02483137 12.49916142 -9.11412232 11.39892923 -8.1875 10.3125 C-7.73568359 9.75755859 -7.28386719 9.20261719 -6.81835938 8.63085938 C-5.5548671 7.07962287 -4.27783702 5.53944145 -3 4 C-1.98999314 2.67423082 -0.98475491 1.34463212 0 0 Z " fill="#40D45D" transform="translate(234,175)"/>
</svg>
